<?xml version="1.0" standalone="no"?>
<!DOCTYPE svg PUBLIC "-//W3C//DTD SVG 20010904//EN"
 "http://www.w3.org/TR/2001/REC-SVG-20010904/DTD/svg10.dtd">
<svg version="1.0" xmlns="http://www.w3.org/2000/svg"
 width="32.000000pt" height="32.000000pt" viewBox="0 0 32.000000 32.000000"
 preserveAspectRatio="xMidYMid meet">
<metadata>
Created by potrace 1.10, written by Peter Selinger 2001-2011
</metadata>
<g transform="translate(0.000000,32.000000) scale(0.100000,-0.100000)"
fill="#000000" stroke="none">
<path d="M88 254 c-41 -21 -58 -63 -58 -138 0 -62 1 -66 25 -72 33 -8 55 11
55 46 0 44 -10 60 -36 60 -28 0 -30 12 -7 50 33 57 114 68 162 23 16 -16 32
-38 36 -50 5 -18 1 -22 -22 -25 -26 -3 -28 -6 -28 -47 0 -51 22 -74 52 -55 22
14 30 104 12 146 -20 49 -64 78 -117 78 -26 -1 -59 -7 -74 -16z"/>
</g>
</svg>
